<?xml version="1.0" encoding="UTF-8" standalone="no"?>
<!DOCTYPE svg PUBLIC "-//W3C//DTD SVG 1.1//EN"
 "http://www.w3.org/Graphics/SVG/1.1/DTD/svg11.dtd">
<!-- Generated by graphviz version 2.38.0 (20140413.2041)
 -->
<!-- Title: odph_api.h Pages: 1 -->
<svg width="1824pt" height="196pt"
 viewBox="0.00 0.00 1823.50 196.00" xmlns="http://www.w3.org/2000/svg" xmlns:xlink="http://www.w3.org/1999/xlink">
<g id="graph0" class="graph" transform="scale(1 1) rotate(0) translate(4 192)">
<title>odph_api.h</title>
<polygon fill="white" stroke="none" points="-4,4 -4,-192 1819.5,-192 1819.5,4 -4,4"/>
<!-- Node0 -->
<g id="node1" class="node"><title>Node0</title>
<polygon fill="#bfbfbf" stroke="black" points="1009,-168.5 1009,-187.5 1078,-187.5 1078,-168.5 1009,-168.5"/>
<text text-anchor="middle" x="1043.5" y="-175.5" font-family="Helvetica,sans-Serif" font-size="10.00">odph_api.h</text>
</g>
<!-- Node1 -->
<g id="node2" class="node"><title>Node1</title>
<g id="a_node2"><a xlink:href="odph__debug_8h.html" target="_top" xlink:title="Helper debug. ">
<polygon fill="white" stroke="black" points="1,-112.5 1,-131.5 140,-131.5 140,-112.5 1,-112.5"/>
<text text-anchor="middle" x="70.5" y="-119.5" font-family="Helvetica,sans-Serif" font-size="10.00">odp/helper/odph_debug.h</text>
</a>
</g>
</g>
<!-- Node0&#45;&gt;Node1 -->
<g id="edge1" class="edge"><title>Node0&#45;&gt;Node1</title>
<path fill="none" stroke="midnightblue" d="M1008.72,-175.942C889.512,-172.168 486.499,-158.168 154.5,-132 153.184,-131.896 151.857,-131.789 150.521,-131.678"/>
<polygon fill="midnightblue" stroke="midnightblue" points="150.412,-128.155 140.144,-130.766 149.799,-135.128 150.412,-128.155"/>
</g>
<!-- Node4 -->
<g id="node5" class="node"><title>Node4</title>
<g id="a_node5"><a xlink:href="chksum_8h.html" target="_top" xlink:title="ODP checksum helper. ">
<polygon fill="white" stroke="black" points="1072,-56.5 1072,-75.5 1189,-75.5 1189,-56.5 1072,-56.5"/>
<text text-anchor="middle" x="1130.5" y="-63.5" font-family="Helvetica,sans-Serif" font-size="10.00">odp/helper/chksum.h</text>
</a>
</g>
</g>
<!-- Node0&#45;&gt;Node4 -->
<g id="edge4" class="edge"><title>Node0&#45;&gt;Node4</title>
<path fill="none" stroke="midnightblue" d="M1056.06,-168.498C1067.63,-160.201 1084.74,-146.708 1096.5,-132 1108.03,-117.573 1117.41,-98.6308 1123.37,-84.9195"/>
<polygon fill="midnightblue" stroke="midnightblue" points="1126.64,-86.1927 1127.25,-75.6155 1120.17,-83.5022 1126.64,-86.1927"/>
</g>
<!-- Node6 -->
<g id="node7" class="node"><title>Node6</title>
<g id="a_node7"><a xlink:href="odph__cuckootable_8h.html" target="_top" xlink:title="ODP Cuckoo Hash Table. ">
<polygon fill="white" stroke="black" points="600,-112.5 600,-131.5 767,-131.5 767,-112.5 600,-112.5"/>
<text text-anchor="middle" x="683.5" y="-119.5" font-family="Helvetica,sans-Serif" font-size="10.00">odp/helper/odph_cuckootable.h</text>
</a>
</g>
</g>
<!-- Node0&#45;&gt;Node6 -->
<g id="edge6" class="edge"><title>Node0&#45;&gt;Node6</title>
<path fill="none" stroke="midnightblue" d="M1008.98,-171.822C949.528,-162.904 826.827,-144.499 750.227,-133.009"/>
<polygon fill="midnightblue" stroke="midnightblue" points="750.607,-129.527 740.199,-131.505 749.569,-136.45 750.607,-129.527"/>
</g>
<!-- Node7 -->
<g id="node8" class="node"><title>Node7</title>
<g id="a_node8"><a xlink:href="table_8h.html" target="_top" xlink:title="ODP table. ">
<polygon fill="white" stroke="black" points="443.5,-56.5 443.5,-75.5 547.5,-75.5 547.5,-56.5 443.5,-56.5"/>
<text text-anchor="middle" x="495.5" y="-63.5" font-family="Helvetica,sans-Serif" font-size="10.00">odp/helper/table.h</text>
</a>
</g>
</g>
<!-- Node0&#45;&gt;Node7 -->
<g id="edge32" class="edge"><title>Node0&#45;&gt;Node7</title>
<path fill="none" stroke="midnightblue" d="M1008.87,-176.408C856.599,-173.641 252.83,-160.874 225.5,-132 219.39,-125.544 219.754,-118.782 225.5,-112 251.593,-81.1982 361.969,-71.4602 433.268,-68.3941"/>
<polygon fill="midnightblue" stroke="midnightblue" points="433.635,-71.8824 443.489,-67.9885 433.358,-64.8879 433.635,-71.8824"/>
</g>
<!-- Node9 -->
<g id="node10" class="node"><title>Node9</title>
<g id="a_node10"><a xlink:href="strong__types_8h.html" target="_top" xlink:title="ODP Strong Types. ">
<polygon fill="white" stroke="black" points="252.5,-0.5 252.5,-19.5 394.5,-19.5 394.5,-0.5 252.5,-0.5"/>
<text text-anchor="middle" x="323.5" y="-7.5" font-family="Helvetica,sans-Serif" font-size="10.00">odp/helper/strong_types.h</text>
</a>
</g>
</g>
<!-- Node0&#45;&gt;Node9 -->
<g id="edge29" class="edge"><title>Node0&#45;&gt;Node9</title>
<path fill="none" stroke="midnightblue" d="M1008.79,-176.426C855.454,-173.724 245.119,-161.165 217.5,-132 181.526,-94.0131 254.962,-46.828 296.947,-24.2478"/>
<polygon fill="midnightblue" stroke="midnightblue" points="298.645,-27.3091 305.872,-19.5614 295.391,-21.1115 298.645,-27.3091"/>
</g>
<!-- Node10 -->
<g id="node11" class="node"><title>Node10</title>
<g id="a_node11"><a xlink:href="eth_8h.html" target="_top" xlink:title="ODP ethernet header. ">
<polygon fill="white" stroke="black" points="1706,-56.5 1706,-75.5 1801,-75.5 1801,-56.5 1706,-56.5"/>
<text text-anchor="middle" x="1753.5" y="-63.5" font-family="Helvetica,sans-Serif" font-size="10.00">odp/helper/eth.h</text>
</a>
</g>
</g>
<!-- Node0&#45;&gt;Node10 -->
<g id="edge10" class="edge"><title>Node0&#45;&gt;Node10</title>
<path fill="none" stroke="midnightblue" d="M1078.34,-176.722C1191.35,-175.465 1546.6,-168.625 1654.5,-132 1671.16,-126.345 1709.79,-99.2023 1733.57,-81.8286"/>
<polygon fill="midnightblue" stroke="midnightblue" points="1735.9,-84.4594 1741.88,-75.7133 1731.75,-78.8214 1735.9,-84.4594"/>
</g>
<!-- Node11 -->
<g id="node12" class="node"><title>Node11</title>
<g id="a_node12"><a xlink:href="odph__hashtable_8h.html" target="_top" xlink:title="ODP Hash Table. ">
<polygon fill="white" stroke="black" points="234.5,-112.5 234.5,-131.5 390.5,-131.5 390.5,-112.5 234.5,-112.5"/>
<text text-anchor="middle" x="312.5" y="-119.5" font-family="Helvetica,sans-Serif" font-size="10.00">odp/helper/odph_hashtable.h</text>
</a>
</g>
</g>
<!-- Node0&#45;&gt;Node11 -->
<g id="edge12" class="edge"><title>Node0&#45;&gt;Node11</title>
<path fill="none" stroke="midnightblue" d="M1008.91,-174.99C913.775,-169.375 639.935,-152.629 401.016,-132.105"/>
<polygon fill="midnightblue" stroke="midnightblue" points="401.007,-128.591 390.743,-131.218 400.405,-135.565 401.007,-128.591"/>
</g>
<!-- Node12 -->
<g id="node13" class="node"><title>Node12</title>
<g id="a_node13"><a xlink:href="icmp_8h.html" target="_top" xlink:title="ODP ICMP header. ">
<polygon fill="white" stroke="black" points="841,-56.5 841,-75.5 944,-75.5 944,-56.5 841,-56.5"/>
<text text-anchor="middle" x="892.5" y="-63.5" font-family="Helvetica,sans-Serif" font-size="10.00">odp/helper/icmp.h</text>
</a>
</g>
</g>
<!-- Node0&#45;&gt;Node12 -->
<g id="edge14" class="edge"><title>Node0&#45;&gt;Node12</title>
<path fill="none" stroke="midnightblue" d="M1031.65,-168.368C1005.85,-149.573 944.346,-104.768 912.45,-81.5334"/>
<polygon fill="midnightblue" stroke="midnightblue" points="914.437,-78.6506 904.294,-75.5914 910.316,-84.3085 914.437,-78.6506"/>
</g>
<!-- Node13 -->
<g id="node14" class="node"><title>Node13</title>
<g id="a_node14"><a xlink:href="ip_8h.html" target="_top" xlink:title="ODP IP header. ">
<polygon fill="white" stroke="black" points="999.5,-112.5 999.5,-131.5 1087.5,-131.5 1087.5,-112.5 999.5,-112.5"/>
<text text-anchor="middle" x="1043.5" y="-119.5" font-family="Helvetica,sans-Serif" font-size="10.00">odp/helper/ip.h</text>
</a>
</g>
</g>
<!-- Node0&#45;&gt;Node13 -->
<g id="edge16" class="edge"><title>Node0&#45;&gt;Node13</title>
<path fill="none" stroke="midnightblue" d="M1043.5,-168.083C1043.5,-161.006 1043.5,-150.861 1043.5,-141.986"/>
<polygon fill="midnightblue" stroke="midnightblue" points="1047,-141.751 1043.5,-131.751 1040,-141.751 1047,-141.751"/>
</g>
<!-- Node15 -->
<g id="node16" class="node"><title>Node15</title>
<g id="a_node16"><a xlink:href="ipsec_8h.html" target="_top" xlink:title="ODP IPSec headers. ">
<polygon fill="white" stroke="black" points="1245.5,-56.5 1245.5,-75.5 1349.5,-75.5 1349.5,-56.5 1245.5,-56.5"/>
<text text-anchor="middle" x="1297.5" y="-63.5" font-family="Helvetica,sans-Serif" font-size="10.00">odp/helper/ipsec.h</text>
</a>
</g>
</g>
<!-- Node0&#45;&gt;Node15 -->
<g id="edge20" class="edge"><title>Node0&#45;&gt;Node15</title>
<path fill="none" stroke="midnightblue" d="M1078.26,-176.847C1121.88,-175.091 1197.41,-166.735 1250.5,-132 1268.11,-120.477 1281.31,-99.907 1289.17,-84.9869"/>
<polygon fill="midnightblue" stroke="midnightblue" points="1292.44,-86.2559 1293.74,-75.7409 1286.17,-83.1512 1292.44,-86.2559"/>
</g>
<!-- Node16 -->
<g id="node17" class="node"><title>Node16</title>
<g id="a_node17"><a xlink:href="odph__lineartable_8h.html" target="_top" xlink:title="ODP Linear Table. ">
<polygon fill="white" stroke="black" points="785,-112.5 785,-131.5 944,-131.5 944,-112.5 785,-112.5"/>
<text text-anchor="middle" x="864.5" y="-119.5" font-family="Helvetica,sans-Serif" font-size="10.00">odp/helper/odph_lineartable.h</text>
</a>
</g>
</g>
<!-- Node0&#45;&gt;Node16 -->
<g id="edge22" class="edge"><title>Node0&#45;&gt;Node16</title>
<path fill="none" stroke="midnightblue" d="M1015.14,-168.444C984.762,-159.28 936.39,-144.688 902.684,-134.519"/>
<polygon fill="midnightblue" stroke="midnightblue" points="903.315,-131.054 892.73,-131.516 901.293,-137.756 903.315,-131.054"/>
</g>
<!-- Node17 -->
<g id="node18" class="node"><title>Node17</title>
<g id="a_node18"><a xlink:href="odph__iplookuptable_8h.html" target="_top" xlink:title="ODP IP Lookup Table. ">
<polygon fill="white" stroke="black" points="409,-112.5 409,-131.5 582,-131.5 582,-112.5 409,-112.5"/>
<text text-anchor="middle" x="495.5" y="-119.5" font-family="Helvetica,sans-Serif" font-size="10.00">odp/helper/odph_iplookuptable.h</text>
</a>
</g>
</g>
<!-- Node0&#45;&gt;Node17 -->
<g id="edge25" class="edge"><title>Node0&#45;&gt;Node17</title>
<path fill="none" stroke="midnightblue" d="M1008.8,-173.581C926.421,-165.463 716.64,-144.791 592.247,-132.534"/>
<polygon fill="midnightblue" stroke="midnightblue" points="592.259,-129.018 581.964,-131.52 591.572,-135.984 592.259,-129.018"/>
</g>
<!-- Node18 -->
<g id="node19" class="node"><title>Node18</title>
<g id="a_node19"><a xlink:href="sctp_8h.html" target="_top" xlink:title="ODP SCTP header. ">
<polygon fill="white" stroke="black" points="1297.5,-112.5 1297.5,-131.5 1397.5,-131.5 1397.5,-112.5 1297.5,-112.5"/>
<text text-anchor="middle" x="1347.5" y="-119.5" font-family="Helvetica,sans-Serif" font-size="10.00">odp/helper/sctp.h</text>
</a>
</g>
</g>
<!-- Node0&#45;&gt;Node18 -->
<g id="edge27" class="edge"><title>Node0&#45;&gt;Node18</title>
<path fill="none" stroke="midnightblue" d="M1078.08,-170.858C1129.52,-161.719 1226.86,-144.429 1289.38,-133.324"/>
<polygon fill="midnightblue" stroke="midnightblue" points="1290.25,-136.725 1299.48,-131.53 1289.02,-129.833 1290.25,-136.725"/>
</g>
<!-- Node19 -->
<g id="node20" class="node"><title>Node19</title>
<g id="a_node20"><a xlink:href="tcp_8h.html" target="_top" xlink:title="ODP TCP header. ">
<polygon fill="white" stroke="black" points="1416,-112.5 1416,-131.5 1511,-131.5 1511,-112.5 1416,-112.5"/>
<text text-anchor="middle" x="1463.5" y="-119.5" font-family="Helvetica,sans-Serif" font-size="10.00">odp/helper/tcp.h</text>
</a>
</g>
</g>
<!-- Node0&#45;&gt;Node19 -->
<g id="edge30" class="edge"><title>Node0&#45;&gt;Node19</title>
<path fill="none" stroke="midnightblue" d="M1078.09,-173.101C1141.05,-165.917 1278.85,-149.811 1406.02,-132.025"/>
<polygon fill="midnightblue" stroke="midnightblue" points="1406.52,-135.49 1415.93,-130.632 1405.54,-128.558 1406.52,-135.49"/>
</g>
<!-- Node20 -->
<g id="node21" class="node"><title>Node20</title>
<g id="a_node21"><a xlink:href="threads_8h.html" target="_top" xlink:title="ODP Linux helper API. ">
<polygon fill="white" stroke="black" points="1529.5,-112.5 1529.5,-131.5 1645.5,-131.5 1645.5,-112.5 1529.5,-112.5"/>
<text text-anchor="middle" x="1587.5" y="-119.5" font-family="Helvetica,sans-Serif" font-size="10.00">odp/helper/threads.h</text>
</a>
</g>
</g>
<!-- Node0&#45;&gt;Node20 -->
<g id="edge33" class="edge"><title>Node0&#45;&gt;Node20</title>
<path fill="none" stroke="midnightblue" d="M1078.19,-174.168C1155.31,-167.774 1347.05,-151.349 1519.27,-131.982"/>
<polygon fill="midnightblue" stroke="midnightblue" points="1519.74,-135.452 1529.28,-130.851 1518.95,-128.497 1519.74,-135.452"/>
</g>
<!-- Node24 -->
<g id="node25" class="node"><title>Node24</title>
<g id="a_node25"><a xlink:href="udp_8h.html" target="_top" xlink:title="ODP UDP header. ">
<polygon fill="white" stroke="black" points="1143.5,-112.5 1143.5,-131.5 1241.5,-131.5 1241.5,-112.5 1143.5,-112.5"/>
<text text-anchor="middle" x="1192.5" y="-119.5" font-family="Helvetica,sans-Serif" font-size="10.00">odp/helper/udp.h</text>
</a>
</g>
</g>
<!-- Node0&#45;&gt;Node24 -->
<g id="edge38" class="edge"><title>Node0&#45;&gt;Node24</title>
<path fill="none" stroke="midnightblue" d="M1067.11,-168.444C1091.96,-159.438 1131.27,-145.189 1159.25,-135.049"/>
<polygon fill="midnightblue" stroke="midnightblue" points="1160.79,-138.214 1169,-131.516 1158.41,-131.633 1160.79,-138.214"/>
</g>
<!-- Node25 -->
<g id="node26" class="node"><title>Node25</title>
<g id="a_node26"><a xlink:href="version_8h.html" target="_top" xlink:title="ODP helper version. ">
<polygon fill="white" stroke="black" points="1701.5,-112.5 1701.5,-131.5 1815.5,-131.5 1815.5,-112.5 1701.5,-112.5"/>
<text text-anchor="middle" x="1758.5" y="-119.5" font-family="Helvetica,sans-Serif" font-size="10.00">odp/helper/version.h</text>
</a>
</g>
</g>
<!-- Node0&#45;&gt;Node25 -->
<g id="edge41" class="edge"><title>Node0&#45;&gt;Node25</title>
<path fill="none" stroke="midnightblue" d="M1078.11,-175.269C1174.68,-170.291 1455.22,-154.82 1687.5,-132 1688.61,-131.891 1689.74,-131.778 1690.87,-131.662"/>
<polygon fill="midnightblue" stroke="midnightblue" points="1691.61,-135.102 1701.18,-130.547 1690.86,-128.142 1691.61,-135.102"/>
</g>
<!-- Node2 -->
<g id="node3" class="node"><title>Node2</title>
<polygon fill="white" stroke="#bfbfbf" points="69,-56.5 69,-75.5 118,-75.5 118,-56.5 69,-56.5"/>
<text text-anchor="middle" x="93.5" y="-63.5" font-family="Helvetica,sans-Serif" font-size="10.00">stdio.h</text>
</g>
<!-- Node1&#45;&gt;Node2 -->
<g id="edge2" class="edge"><title>Node1&#45;&gt;Node2</title>
<path fill="none" stroke="midnightblue" d="M74.298,-112.083C77.4128,-104.77 81.9228,-94.1814 85.7893,-85.1034"/>
<polygon fill="midnightblue" stroke="midnightblue" points="89.0741,-86.3229 89.7727,-75.7511 82.6339,-83.5798 89.0741,-86.3229"/>
</g>
<!-- Node3 -->
<g id="node4" class="node"><title>Node3</title>
<polygon fill="white" stroke="#bfbfbf" points="0,-56.5 0,-75.5 51,-75.5 51,-56.5 0,-56.5"/>
<text text-anchor="middle" x="25.5" y="-63.5" font-family="Helvetica,sans-Serif" font-size="10.00">stdlib.h</text>
</g>
<!-- Node1&#45;&gt;Node3 -->
<g id="edge3" class="edge"><title>Node1&#45;&gt;Node3</title>
<path fill="none" stroke="midnightblue" d="M63.0692,-112.083C56.6473,-104.377 47.1944,-93.0333 39.3775,-83.6531"/>
<polygon fill="midnightblue" stroke="midnightblue" points="41.8832,-81.1927 32.7926,-75.7511 36.5057,-85.674 41.8832,-81.1927"/>
</g>
<!-- Node5 -->
<g id="node6" class="node"><title>Node5</title>
<polygon fill="white" stroke="#bfbfbf" points="1226,-0.5 1226,-19.5 1289,-19.5 1289,-0.5 1226,-0.5"/>
<text text-anchor="middle" x="1257.5" y="-7.5" font-family="Helvetica,sans-Serif" font-size="10.00">odp_api.h</text>
</g>
<!-- Node4&#45;&gt;Node5 -->
<g id="edge5" class="edge"><title>Node4&#45;&gt;Node5</title>
<path fill="none" stroke="midnightblue" d="M1150.62,-56.4435C1171.52,-47.5566 1204.43,-33.5632 1228.22,-23.4514"/>
<polygon fill="midnightblue" stroke="midnightblue" points="1229.64,-26.6504 1237.47,-19.5164 1226.9,-20.2085 1229.64,-26.6504"/>
</g>
<!-- Node6&#45;&gt;Node7 -->
<g id="edge7" class="edge"><title>Node6&#45;&gt;Node7</title>
<path fill="none" stroke="midnightblue" d="M653.711,-112.444C621.671,-103.241 570.567,-88.5617 535.147,-78.3879"/>
<polygon fill="midnightblue" stroke="midnightblue" points="535.727,-74.9132 525.15,-75.5164 533.795,-81.6412 535.727,-74.9132"/>
</g>
<!-- Node8 -->
<g id="node9" class="node"><title>Node8</title>
<polygon fill="white" stroke="#bfbfbf" points="569,-0.5 569,-19.5 622,-19.5 622,-0.5 569,-0.5"/>
<text text-anchor="middle" x="595.5" y="-7.5" font-family="Helvetica,sans-Serif" font-size="10.00">stdint.h</text>
</g>
<!-- Node7&#45;&gt;Node8 -->
<g id="edge8" class="edge"><title>Node7&#45;&gt;Node8</title>
<path fill="none" stroke="midnightblue" d="M511.567,-56.324C527.458,-47.7428 552.007,-34.486 570.458,-24.5224"/>
<polygon fill="midnightblue" stroke="midnightblue" points="572.337,-27.4857 579.473,-19.6545 569.011,-21.3264 572.337,-27.4857"/>
</g>
<!-- Node7&#45;&gt;Node9 -->
<g id="edge9" class="edge"><title>Node7&#45;&gt;Node9</title>
<path fill="none" stroke="midnightblue" d="M468.246,-56.4435C439.059,-47.2801 392.579,-32.6876 360.191,-22.5192"/>
<polygon fill="midnightblue" stroke="midnightblue" points="361.216,-19.1726 350.626,-19.5164 359.119,-25.8512 361.216,-19.1726"/>
</g>
<!-- Node10&#45;&gt;Node5 -->
<g id="edge11" class="edge"><title>Node10&#45;&gt;Node5</title>
<path fill="none" stroke="midnightblue" d="M1705.94,-57.2925C1702.75,-56.8363 1699.58,-56.4007 1696.5,-56 1551.2,-37.0956 1377.98,-21.3214 1299.65,-14.5516"/>
<polygon fill="midnightblue" stroke="midnightblue" points="1299.51,-11.0262 1289.25,-13.6568 1298.91,-18.0005 1299.51,-11.0262"/>
</g>
<!-- Node11&#45;&gt;Node7 -->
<g id="edge13" class="edge"><title>Node11&#45;&gt;Node7</title>
<path fill="none" stroke="midnightblue" d="M341.497,-112.444C372.685,-103.241 422.43,-88.5617 456.908,-78.3879"/>
<polygon fill="midnightblue" stroke="midnightblue" points="458.038,-81.7036 466.639,-75.5164 456.057,-74.9898 458.038,-81.7036"/>
</g>
<!-- Node12&#45;&gt;Node5 -->
<g id="edge15" class="edge"><title>Node12&#45;&gt;Node5</title>
<path fill="none" stroke="midnightblue" d="M944.209,-57.2355C947.014,-56.817 949.791,-56.403 952.5,-56 1046.64,-41.9943 1157.16,-25.7334 1215.88,-17.1081"/>
<polygon fill="midnightblue" stroke="midnightblue" points="1216.5,-20.5552 1225.88,-15.6392 1215.48,-13.6295 1216.5,-20.5552"/>
</g>
<!-- Node13&#45;&gt;Node4 -->
<g id="edge18" class="edge"><title>Node13&#45;&gt;Node4</title>
<path fill="none" stroke="midnightblue" d="M1057.48,-112.324C1071.05,-103.9 1091.88,-90.9709 1107.82,-81.0741"/>
<polygon fill="midnightblue" stroke="midnightblue" points="1109.91,-83.9019 1116.56,-75.6545 1106.21,-77.9544 1109.91,-83.9019"/>
</g>
<!-- Node13&#45;&gt;Node5 -->
<g id="edge17" class="edge"><title>Node13&#45;&gt;Node5</title>
<path fill="none" stroke="midnightblue" d="M1043.42,-112.445C1043.77,-98.5224 1046.6,-71.0114 1062.5,-56 1084.3,-35.4163 1165.36,-22.1321 1215.85,-15.6617"/>
<polygon fill="midnightblue" stroke="midnightblue" points="1216.33,-19.1291 1225.82,-14.4212 1215.46,-12.1826 1216.33,-19.1291"/>
</g>
<!-- Node14 -->
<g id="node15" class="node"><title>Node14</title>
<polygon fill="white" stroke="#bfbfbf" points="962,-56.5 962,-75.5 1015,-75.5 1015,-56.5 962,-56.5"/>
<text text-anchor="middle" x="988.5" y="-63.5" font-family="Helvetica,sans-Serif" font-size="10.00">string.h</text>
</g>
<!-- Node13&#45;&gt;Node14 -->
<g id="edge19" class="edge"><title>Node13&#45;&gt;Node14</title>
<path fill="none" stroke="midnightblue" d="M1034.42,-112.083C1026.33,-104.141 1014.3,-92.3354 1004.59,-82.7973"/>
<polygon fill="midnightblue" stroke="midnightblue" points="1007,-80.2595 997.413,-75.7511 1002.1,-85.2545 1007,-80.2595"/>
</g>
<!-- Node15&#45;&gt;Node5 -->
<g id="edge21" class="edge"><title>Node15&#45;&gt;Node5</title>
<path fill="none" stroke="midnightblue" d="M1290.89,-56.083C1285.24,-48.4554 1276.96,-37.2645 1270.05,-27.9408"/>
<polygon fill="midnightblue" stroke="midnightblue" points="1272.75,-25.7034 1263.98,-19.7511 1267.12,-29.87 1272.75,-25.7034"/>
</g>
<!-- Node16&#45;&gt;Node7 -->
<g id="edge24" class="edge"><title>Node16&#45;&gt;Node7</title>
<path fill="none" stroke="midnightblue" d="M806.031,-112.444C738.238,-102.523 626.96,-86.2381 557.642,-76.094"/>
<polygon fill="midnightblue" stroke="midnightblue" points="558.131,-72.6283 547.729,-74.6433 557.117,-79.5545 558.131,-72.6283"/>
</g>
<!-- Node16&#45;&gt;Node8 -->
<g id="edge23" class="edge"><title>Node16&#45;&gt;Node8</title>
<path fill="none" stroke="midnightblue" d="M843.392,-112.368C796.053,-93.0105 681.249,-46.0645 626.086,-23.5074"/>
<polygon fill="midnightblue" stroke="midnightblue" points="627.091,-20.1369 616.51,-19.5914 624.441,-26.6161 627.091,-20.1369"/>
</g>
<!-- Node17&#45;&gt;Node7 -->
<g id="edge26" class="edge"><title>Node17&#45;&gt;Node7</title>
<path fill="none" stroke="midnightblue" d="M495.5,-112.083C495.5,-105.006 495.5,-94.8611 495.5,-85.9865"/>
<polygon fill="midnightblue" stroke="midnightblue" points="499,-85.751 495.5,-75.7511 492,-85.7511 499,-85.751"/>
</g>
<!-- Node18&#45;&gt;Node5 -->
<g id="edge28" class="edge"><title>Node18&#45;&gt;Node5</title>
<path fill="none" stroke="midnightblue" d="M1352.57,-112.226C1359.5,-98.9536 1369.84,-73.4712 1358.5,-56 1345.42,-35.8457 1320.98,-24.6419 1299.42,-18.4544"/>
<polygon fill="midnightblue" stroke="midnightblue" points="1300.01,-14.9914 1289.45,-15.8764 1298.26,-21.7685 1300.01,-14.9914"/>
</g>
<!-- Node19&#45;&gt;Node5 -->
<g id="edge31" class="edge"><title>Node19&#45;&gt;Node5</title>
<path fill="none" stroke="midnightblue" d="M1453.81,-112.445C1438.21,-99.0083 1406.17,-72.763 1375.5,-56 1350.25,-42.1971 1319.87,-30.719 1296.27,-22.8101"/>
<polygon fill="midnightblue" stroke="midnightblue" points="1297.19,-19.4297 1286.6,-19.6427 1295.01,-26.0819 1297.19,-19.4297"/>
</g>
<!-- Node21 -->
<g id="node22" class="node"><title>Node21</title>
<g id="a_node22"><a xlink:href="pthread_8h.html" target="_top" xlink:title="ODP Linux helper for pthreads. ">
<polygon fill="white" stroke="black" points="1550,-56.5 1550,-75.5 1613,-75.5 1613,-56.5 1550,-56.5"/>
<text text-anchor="middle" x="1581.5" y="-63.5" font-family="Helvetica,sans-Serif" font-size="10.00">pthread.h</text>
</a>
</g>
</g>
<!-- Node20&#45;&gt;Node21 -->
<g id="edge34" class="edge"><title>Node20&#45;&gt;Node21</title>
<path fill="none" stroke="midnightblue" d="M1581.34,-112.083C1579.06,-105.006 1577.5,-94.8611 1577.13,-85.9865"/>
<polygon fill="midnightblue" stroke="midnightblue" points="1580.64,-85.8209 1577.34,-75.7511 1573.64,-85.6771 1580.64,-85.8209"/>
</g>
<!-- Node22 -->
<g id="node23" class="node"><title>Node22</title>
<polygon fill="white" stroke="#bfbfbf" points="1631,-56.5 1631,-75.5 1688,-75.5 1688,-56.5 1631,-56.5"/>
<text text-anchor="middle" x="1659.5" y="-63.5" font-family="Helvetica,sans-Serif" font-size="10.00">getopt.h</text>
</g>
<!-- Node20&#45;&gt;Node22 -->
<g id="edge36" class="edge"><title>Node20&#45;&gt;Node22</title>
<path fill="none" stroke="midnightblue" d="M1599.07,-112.324C1609.92,-104.185 1626.38,-91.8395 1639.38,-82.0874"/>
<polygon fill="midnightblue" stroke="midnightblue" points="1641.82,-84.6339 1647.72,-75.8339 1637.62,-79.0339 1641.82,-84.6339"/>
</g>
<!-- Node23 -->
<g id="node24" class="node"><title>Node23</title>
<polygon fill="white" stroke="#bfbfbf" points="1461,-56.5 1461,-75.5 1532,-75.5 1532,-56.5 1461,-56.5"/>
<text text-anchor="middle" x="1496.5" y="-63.5" font-family="Helvetica,sans-Serif" font-size="10.00">sys/types.h</text>
</g>
<!-- Node20&#45;&gt;Node23 -->
<g id="edge37" class="edge"><title>Node20&#45;&gt;Node23</title>
<path fill="none" stroke="midnightblue" d="M1572.88,-112.324C1558.55,-103.822 1536.49,-90.7288 1519.75,-80.7975"/>
<polygon fill="midnightblue" stroke="midnightblue" points="1521.47,-77.7478 1511.08,-75.6545 1517.9,-83.7677 1521.47,-77.7478"/>
</g>
<!-- Node21&#45;&gt;Node20 -->
<g id="edge35" class="edge"><title>Node21&#45;&gt;Node20</title>
<path fill="none" stroke="midnightblue" d="M1587.6,-75.7511C1589.89,-82.7798 1591.47,-92.9102 1591.86,-101.805"/>
<polygon fill="midnightblue" stroke="midnightblue" points="1588.36,-102.022 1591.68,-112.083 1595.35,-102.147 1588.36,-102.022"/>
</g>
<!-- Node24&#45;&gt;Node4 -->
<g id="edge40" class="edge"><title>Node24&#45;&gt;Node4</title>
<path fill="none" stroke="midnightblue" d="M1182.54,-112.324C1173.37,-104.341 1159.56,-92.3128 1148.47,-82.6529"/>
<polygon fill="midnightblue" stroke="midnightblue" points="1150.48,-79.7624 1140.64,-75.8339 1145.88,-85.041 1150.48,-79.7624"/>
</g>
<!-- Node24&#45;&gt;Node5 -->
<g id="edge39" class="edge"><title>Node24&#45;&gt;Node5</title>
<path fill="none" stroke="midnightblue" d="M1197.6,-112.368C1208.28,-94.2957 1233.17,-52.1764 1247.27,-28.3074"/>
<polygon fill="midnightblue" stroke="midnightblue" points="1250.35,-29.9813 1252.42,-19.5914 1244.32,-26.4201 1250.35,-29.9813"/>
</g>
</g>
</svg>
